<mxfile host="app.diagrams.net" modified="2023-08-29T20:20:21.957Z" agent="Mozilla/5.0 (Windows NT 10.0; Win64; x64) AppleWebKit/537.36 (KHTML, like Gecko) Chrome/116.0.0.0 Safari/537.36" etag="ugTTa-Tqu-d6uKS8jcGH" version="21.6.9" type="github">
  <diagram name="Side-1" id="eRcsLx-WsqBAz_trSe9i">
    <mxGraphModel dx="2314" dy="1150" grid="1" gridSize="10" guides="1" tooltips="1" connect="1" arrows="1" fold="1" page="1" pageScale="1" pageWidth="827" pageHeight="1169" math="0" shadow="0">
      <root>
        <mxCell id="0" />
        <mxCell id="1" parent="0" />
        <mxCell id="eSbj1jlRRddmUOfxKA9i-1" value="" style="edgeStyle=orthogonalEdgeStyle;rounded=0;orthogonalLoop=1;jettySize=auto;html=1;" edge="1" parent="1" source="eSbj1jlRRddmUOfxKA9i-2" target="eSbj1jlRRddmUOfxKA9i-4">
          <mxGeometry relative="1" as="geometry" />
        </mxCell>
        <mxCell id="eSbj1jlRRddmUOfxKA9i-2" value="Start" style="rounded=1;whiteSpace=wrap;html=1;arcSize=50;" vertex="1" parent="1">
          <mxGeometry x="80.91" y="30" width="120" height="40" as="geometry" />
        </mxCell>
        <mxCell id="eSbj1jlRRddmUOfxKA9i-3" value="" style="edgeStyle=orthogonalEdgeStyle;rounded=0;orthogonalLoop=1;jettySize=auto;html=1;" edge="1" parent="1" source="eSbj1jlRRddmUOfxKA9i-4" target="eSbj1jlRRddmUOfxKA9i-9">
          <mxGeometry relative="1" as="geometry" />
        </mxCell>
        <mxCell id="eSbj1jlRRddmUOfxKA9i-4" value="Login" style="rounded=1;whiteSpace=wrap;html=1;arcSize=0;" vertex="1" parent="1">
          <mxGeometry x="80.91" y="110" width="120" height="40" as="geometry" />
        </mxCell>
        <mxCell id="eSbj1jlRRddmUOfxKA9i-5" style="edgeStyle=orthogonalEdgeStyle;rounded=0;orthogonalLoop=1;jettySize=auto;html=1;entryX=0;entryY=0.5;entryDx=0;entryDy=0;" edge="1" parent="1" source="eSbj1jlRRddmUOfxKA9i-9" target="eSbj1jlRRddmUOfxKA9i-4">
          <mxGeometry relative="1" as="geometry">
            <Array as="points">
              <mxPoint x="40.91" y="230" />
              <mxPoint x="40.91" y="130" />
            </Array>
          </mxGeometry>
        </mxCell>
        <mxCell id="eSbj1jlRRddmUOfxKA9i-6" value="NO" style="edgeLabel;html=1;align=center;verticalAlign=middle;resizable=0;points=[];" connectable="0" vertex="1" parent="eSbj1jlRRddmUOfxKA9i-5">
          <mxGeometry x="0.075" y="1" relative="1" as="geometry">
            <mxPoint as="offset" />
          </mxGeometry>
        </mxCell>
        <mxCell id="eSbj1jlRRddmUOfxKA9i-7" value="" style="edgeStyle=orthogonalEdgeStyle;rounded=0;orthogonalLoop=1;jettySize=auto;html=1;" edge="1" parent="1" source="eSbj1jlRRddmUOfxKA9i-9" target="eSbj1jlRRddmUOfxKA9i-11">
          <mxGeometry relative="1" as="geometry" />
        </mxCell>
        <mxCell id="eSbj1jlRRddmUOfxKA9i-8" value="YES" style="edgeLabel;html=1;align=center;verticalAlign=middle;resizable=0;points=[];" connectable="0" vertex="1" parent="eSbj1jlRRddmUOfxKA9i-7">
          <mxGeometry x="-0.3" y="-3" relative="1" as="geometry">
            <mxPoint x="2" as="offset" />
          </mxGeometry>
        </mxCell>
        <mxCell id="eSbj1jlRRddmUOfxKA9i-9" value="Login Is Valid" style="rhombus;whiteSpace=wrap;html=1;" vertex="1" parent="1">
          <mxGeometry x="100.91" y="190" width="80" height="80" as="geometry" />
        </mxCell>
        <mxCell id="eSbj1jlRRddmUOfxKA9i-10" value="" style="edgeStyle=orthogonalEdgeStyle;rounded=0;orthogonalLoop=1;jettySize=auto;html=1;" edge="1" parent="1" source="eSbj1jlRRddmUOfxKA9i-11" target="eSbj1jlRRddmUOfxKA9i-13">
          <mxGeometry relative="1" as="geometry" />
        </mxCell>
        <mxCell id="eSbj1jlRRddmUOfxKA9i-11" value="Determine User Role" style="whiteSpace=wrap;html=1;" vertex="1" parent="1">
          <mxGeometry x="80.91" y="310" width="120" height="40" as="geometry" />
        </mxCell>
        <mxCell id="eSbj1jlRRddmUOfxKA9i-12" value="" style="edgeStyle=orthogonalEdgeStyle;rounded=0;orthogonalLoop=1;jettySize=auto;html=1;" edge="1" parent="1" source="eSbj1jlRRddmUOfxKA9i-13" target="eSbj1jlRRddmUOfxKA9i-14">
          <mxGeometry relative="1" as="geometry" />
        </mxCell>
        <mxCell id="eSbj1jlRRddmUOfxKA9i-13" value="Display View" style="whiteSpace=wrap;html=1;" vertex="1" parent="1">
          <mxGeometry x="80.91" y="390" width="120" height="40" as="geometry" />
        </mxCell>
        <mxCell id="eSbj1jlRRddmUOfxKA9i-14" value="End" style="rounded=1;whiteSpace=wrap;html=1;arcSize=50;" vertex="1" parent="1">
          <mxGeometry x="80.91" y="470" width="120" height="40" as="geometry" />
        </mxCell>
        <mxCell id="eSbj1jlRRddmUOfxKA9i-75" value="" style="edgeStyle=orthogonalEdgeStyle;rounded=0;orthogonalLoop=1;jettySize=auto;html=1;" edge="1" parent="1" source="eSbj1jlRRddmUOfxKA9i-16" target="eSbj1jlRRddmUOfxKA9i-18">
          <mxGeometry relative="1" as="geometry" />
        </mxCell>
        <mxCell id="eSbj1jlRRddmUOfxKA9i-16" value="Start" style="rounded=1;whiteSpace=wrap;html=1;arcSize=50;" vertex="1" parent="1">
          <mxGeometry x="309.98" y="30" width="120" height="40" as="geometry" />
        </mxCell>
        <mxCell id="eSbj1jlRRddmUOfxKA9i-76" value="" style="edgeStyle=orthogonalEdgeStyle;rounded=0;orthogonalLoop=1;jettySize=auto;html=1;" edge="1" parent="1" source="eSbj1jlRRddmUOfxKA9i-18" target="eSbj1jlRRddmUOfxKA9i-22">
          <mxGeometry relative="1" as="geometry" />
        </mxCell>
        <mxCell id="eSbj1jlRRddmUOfxKA9i-18" value="Click OrderOverview" style="shape=parallelogram;perimeter=parallelogramPerimeter;whiteSpace=wrap;html=1;fixedSize=1;rounded=1;arcSize=0;" vertex="1" parent="1">
          <mxGeometry x="490" y="30" width="140.02" height="40" as="geometry" />
        </mxCell>
        <mxCell id="eSbj1jlRRddmUOfxKA9i-134" value="" style="edgeStyle=orthogonalEdgeStyle;rounded=0;orthogonalLoop=1;jettySize=auto;html=1;" edge="1" parent="1" source="eSbj1jlRRddmUOfxKA9i-22" target="eSbj1jlRRddmUOfxKA9i-79">
          <mxGeometry relative="1" as="geometry" />
        </mxCell>
        <mxCell id="eSbj1jlRRddmUOfxKA9i-22" value="Display All Orders&lt;br&gt;by Status" style="whiteSpace=wrap;html=1;rounded=1;arcSize=0;" vertex="1" parent="1">
          <mxGeometry x="719.97" y="30" width="120" height="40" as="geometry" />
        </mxCell>
        <mxCell id="eSbj1jlRRddmUOfxKA9i-47" value="" style="edgeStyle=orthogonalEdgeStyle;rounded=0;orthogonalLoop=1;jettySize=auto;html=1;" edge="1" parent="1" source="eSbj1jlRRddmUOfxKA9i-48">
          <mxGeometry relative="1" as="geometry">
            <mxPoint x="469.9749999999999" y="200" as="targetPoint" />
          </mxGeometry>
        </mxCell>
        <mxCell id="eSbj1jlRRddmUOfxKA9i-48" value="Click Confirmation" style="shape=parallelogram;perimeter=parallelogramPerimeter;whiteSpace=wrap;html=1;fixedSize=1;rounded=1;arcSize=0;" vertex="1" parent="1">
          <mxGeometry x="402.46000000000004" y="120" width="135.03" height="40" as="geometry" />
        </mxCell>
        <mxCell id="eSbj1jlRRddmUOfxKA9i-49" value="" style="edgeStyle=orthogonalEdgeStyle;rounded=0;orthogonalLoop=1;jettySize=auto;html=1;" edge="1" parent="1">
          <mxGeometry relative="1" as="geometry">
            <mxPoint x="469.98" y="240" as="sourcePoint" />
            <mxPoint x="470" y="280" as="targetPoint" />
          </mxGeometry>
        </mxCell>
        <mxCell id="eSbj1jlRRddmUOfxKA9i-190" value="" style="edgeStyle=orthogonalEdgeStyle;rounded=0;orthogonalLoop=1;jettySize=auto;html=1;" edge="1" parent="1" source="eSbj1jlRRddmUOfxKA9i-56" target="eSbj1jlRRddmUOfxKA9i-189">
          <mxGeometry relative="1" as="geometry" />
        </mxCell>
        <mxCell id="eSbj1jlRRddmUOfxKA9i-56" value="Send Confirmation" style="whiteSpace=wrap;html=1;rounded=1;arcSize=0;" vertex="1" parent="1">
          <mxGeometry x="260" y="440" width="120" height="40" as="geometry" />
        </mxCell>
        <mxCell id="eSbj1jlRRddmUOfxKA9i-74" value="End" style="whiteSpace=wrap;html=1;rounded=1;arcSize=50;" vertex="1" parent="1">
          <mxGeometry x="409.97" y="560" width="120" height="40" as="geometry" />
        </mxCell>
        <mxCell id="eSbj1jlRRddmUOfxKA9i-78" value="" style="edgeStyle=orthogonalEdgeStyle;rounded=0;orthogonalLoop=1;jettySize=auto;html=1;" edge="1" parent="1" source="eSbj1jlRRddmUOfxKA9i-79">
          <mxGeometry relative="1" as="geometry">
            <mxPoint x="779.9699999999998" y="200" as="targetPoint" />
          </mxGeometry>
        </mxCell>
        <mxCell id="eSbj1jlRRddmUOfxKA9i-79" value="Click ReadyForPickUp" style="shape=parallelogram;perimeter=parallelogramPerimeter;whiteSpace=wrap;html=1;fixedSize=1;rounded=1;arcSize=0;" vertex="1" parent="1">
          <mxGeometry x="704.95" y="120" width="150.04" height="40" as="geometry" />
        </mxCell>
        <mxCell id="eSbj1jlRRddmUOfxKA9i-80" value="" style="edgeStyle=orthogonalEdgeStyle;rounded=0;orthogonalLoop=1;jettySize=auto;html=1;" edge="1" parent="1">
          <mxGeometry relative="1" as="geometry">
            <mxPoint x="779.9700000000003" y="240" as="sourcePoint" />
            <mxPoint x="780" y="280" as="targetPoint" />
          </mxGeometry>
        </mxCell>
        <mxCell id="eSbj1jlRRddmUOfxKA9i-88" value="" style="edgeStyle=orthogonalEdgeStyle;rounded=0;orthogonalLoop=1;jettySize=auto;html=1;" edge="1" parent="1" target="eSbj1jlRRddmUOfxKA9i-94">
          <mxGeometry relative="1" as="geometry">
            <mxPoint x="779.9700000000003" y="440" as="sourcePoint" />
          </mxGeometry>
        </mxCell>
        <mxCell id="eSbj1jlRRddmUOfxKA9i-202" value="" style="edgeStyle=orthogonalEdgeStyle;rounded=0;orthogonalLoop=1;jettySize=auto;html=1;" edge="1" parent="1" source="eSbj1jlRRddmUOfxKA9i-94" target="eSbj1jlRRddmUOfxKA9i-201">
          <mxGeometry relative="1" as="geometry" />
        </mxCell>
        <mxCell id="eSbj1jlRRddmUOfxKA9i-205" value="YES" style="edgeStyle=orthogonalEdgeStyle;rounded=0;orthogonalLoop=1;jettySize=auto;html=1;" edge="1" parent="1" source="eSbj1jlRRddmUOfxKA9i-94" target="eSbj1jlRRddmUOfxKA9i-201">
          <mxGeometry relative="1" as="geometry" />
        </mxCell>
        <mxCell id="eSbj1jlRRddmUOfxKA9i-94" value="Due Time" style="rhombus;whiteSpace=wrap;html=1;rounded=1;arcSize=0;" vertex="1" parent="1">
          <mxGeometry x="739.97" y="480" width="80" height="80" as="geometry" />
        </mxCell>
        <mxCell id="eSbj1jlRRddmUOfxKA9i-103" value="" style="edgeStyle=orthogonalEdgeStyle;rounded=0;orthogonalLoop=1;jettySize=auto;html=1;" edge="1" parent="1" target="eSbj1jlRRddmUOfxKA9i-105">
          <mxGeometry relative="1" as="geometry">
            <mxPoint x="779.9700000000003" y="760" as="sourcePoint" />
          </mxGeometry>
        </mxCell>
        <mxCell id="eSbj1jlRRddmUOfxKA9i-105" value="End" style="whiteSpace=wrap;html=1;rounded=1;arcSize=50;" vertex="1" parent="1">
          <mxGeometry x="719.97" y="800" width="120" height="40" as="geometry" />
        </mxCell>
        <mxCell id="eSbj1jlRRddmUOfxKA9i-106" value="" style="edgeStyle=orthogonalEdgeStyle;rounded=0;orthogonalLoop=1;jettySize=auto;html=1;" edge="1" parent="1" source="eSbj1jlRRddmUOfxKA9i-107">
          <mxGeometry relative="1" as="geometry">
            <mxPoint x="1059.98" y="200" as="targetPoint" />
          </mxGeometry>
        </mxCell>
        <mxCell id="eSbj1jlRRddmUOfxKA9i-107" value="Click Completed" style="shape=parallelogram;perimeter=parallelogramPerimeter;whiteSpace=wrap;html=1;fixedSize=1;rounded=1;arcSize=0;" vertex="1" parent="1">
          <mxGeometry x="999.98" y="120" width="120" height="40" as="geometry" />
        </mxCell>
        <mxCell id="eSbj1jlRRddmUOfxKA9i-108" value="" style="edgeStyle=orthogonalEdgeStyle;rounded=0;orthogonalLoop=1;jettySize=auto;html=1;" edge="1" parent="1">
          <mxGeometry relative="1" as="geometry">
            <mxPoint x="1059.98" y="240" as="sourcePoint" />
            <mxPoint x="1060" y="280" as="targetPoint" />
          </mxGeometry>
        </mxCell>
        <mxCell id="eSbj1jlRRddmUOfxKA9i-129" value="" style="edgeStyle=orthogonalEdgeStyle;rounded=0;orthogonalLoop=1;jettySize=auto;html=1;" edge="1" parent="1" source="eSbj1jlRRddmUOfxKA9i-130">
          <mxGeometry relative="1" as="geometry">
            <mxPoint x="1059.98" y="360" as="targetPoint" />
          </mxGeometry>
        </mxCell>
        <mxCell id="eSbj1jlRRddmUOfxKA9i-130" value="Cliick One Order" style="shape=parallelogram;perimeter=parallelogramPerimeter;whiteSpace=wrap;html=1;fixedSize=1;rounded=1;arcSize=0;" vertex="1" parent="1">
          <mxGeometry x="999.98" y="280" width="120" height="40" as="geometry" />
        </mxCell>
        <mxCell id="eSbj1jlRRddmUOfxKA9i-131" value="" style="edgeStyle=orthogonalEdgeStyle;rounded=0;orthogonalLoop=1;jettySize=auto;html=1;" edge="1" parent="1" target="eSbj1jlRRddmUOfxKA9i-133">
          <mxGeometry relative="1" as="geometry">
            <mxPoint x="1059.98" y="400" as="sourcePoint" />
          </mxGeometry>
        </mxCell>
        <mxCell id="eSbj1jlRRddmUOfxKA9i-133" value="End" style="whiteSpace=wrap;html=1;rounded=1;arcSize=50;" vertex="1" parent="1">
          <mxGeometry x="999.98" y="440" width="120" height="40" as="geometry" />
        </mxCell>
        <mxCell id="eSbj1jlRRddmUOfxKA9i-135" value="" style="endArrow=classic;html=1;rounded=0;entryX=0.5;entryY=0;entryDx=0;entryDy=0;" edge="1" parent="1" target="eSbj1jlRRddmUOfxKA9i-107">
          <mxGeometry width="50" height="50" relative="1" as="geometry">
            <mxPoint x="750" y="100" as="sourcePoint" />
            <mxPoint x="1060" y="100" as="targetPoint" />
            <Array as="points">
              <mxPoint x="1060" y="100" />
            </Array>
          </mxGeometry>
        </mxCell>
        <mxCell id="eSbj1jlRRddmUOfxKA9i-137" value="" style="endArrow=classic;html=1;rounded=0;entryX=0.5;entryY=0;entryDx=0;entryDy=0;" edge="1" parent="1" target="eSbj1jlRRddmUOfxKA9i-48">
          <mxGeometry width="50" height="50" relative="1" as="geometry">
            <mxPoint x="750" y="100" as="sourcePoint" />
            <mxPoint x="900" y="160" as="targetPoint" />
            <Array as="points">
              <mxPoint x="470" y="100" />
            </Array>
          </mxGeometry>
        </mxCell>
        <mxCell id="eSbj1jlRRddmUOfxKA9i-138" value="" style="edgeStyle=orthogonalEdgeStyle;rounded=0;orthogonalLoop=1;jettySize=auto;html=1;" edge="1" parent="1" source="eSbj1jlRRddmUOfxKA9i-139">
          <mxGeometry relative="1" as="geometry">
            <mxPoint x="1339.975" y="200" as="targetPoint" />
          </mxGeometry>
        </mxCell>
        <mxCell id="eSbj1jlRRddmUOfxKA9i-139" value="Click InProcess" style="shape=parallelogram;perimeter=parallelogramPerimeter;whiteSpace=wrap;html=1;fixedSize=1;rounded=1;arcSize=0;" vertex="1" parent="1">
          <mxGeometry x="1269.96" y="120" width="140.03" height="40" as="geometry" />
        </mxCell>
        <mxCell id="eSbj1jlRRddmUOfxKA9i-163" value="" style="edgeStyle=orthogonalEdgeStyle;rounded=0;orthogonalLoop=1;jettySize=auto;html=1;" edge="1" parent="1" source="eSbj1jlRRddmUOfxKA9i-164" target="eSbj1jlRRddmUOfxKA9i-165">
          <mxGeometry relative="1" as="geometry" />
        </mxCell>
        <mxCell id="eSbj1jlRRddmUOfxKA9i-164" value="Send OrderPlaced Mail" style="whiteSpace=wrap;html=1;rounded=1;arcSize=0;" vertex="1" parent="1">
          <mxGeometry x="1019.96" y="1260" width="120" height="40" as="geometry" />
        </mxCell>
        <mxCell id="eSbj1jlRRddmUOfxKA9i-165" value="End" style="whiteSpace=wrap;html=1;rounded=1;arcSize=50;" vertex="1" parent="1">
          <mxGeometry x="1019.96" y="1340" width="120" height="40" as="geometry" />
        </mxCell>
        <mxCell id="eSbj1jlRRddmUOfxKA9i-166" value="" style="endArrow=classic;html=1;rounded=0;entryX=0.5;entryY=0;entryDx=0;entryDy=0;" edge="1" parent="1" target="eSbj1jlRRddmUOfxKA9i-139">
          <mxGeometry width="50" height="50" relative="1" as="geometry">
            <mxPoint x="1060" y="100" as="sourcePoint" />
            <mxPoint x="900" y="160" as="targetPoint" />
            <Array as="points">
              <mxPoint x="1340" y="100" />
            </Array>
          </mxGeometry>
        </mxCell>
        <mxCell id="eSbj1jlRRddmUOfxKA9i-167" value="Display List of&amp;nbsp;&lt;br&gt;New Orders" style="whiteSpace=wrap;html=1;rounded=1;arcSize=0;" vertex="1" parent="1">
          <mxGeometry x="409.97" y="200" width="120" height="40" as="geometry" />
        </mxCell>
        <mxCell id="eSbj1jlRRddmUOfxKA9i-171" value="" style="edgeStyle=orthogonalEdgeStyle;rounded=0;orthogonalLoop=1;jettySize=auto;html=1;" edge="1" parent="1" source="eSbj1jlRRddmUOfxKA9i-168" target="eSbj1jlRRddmUOfxKA9i-169">
          <mxGeometry relative="1" as="geometry" />
        </mxCell>
        <mxCell id="eSbj1jlRRddmUOfxKA9i-168" value="Get Order Products" style="shape=parallelogram;perimeter=parallelogramPerimeter;whiteSpace=wrap;html=1;fixedSize=1;rounded=1;arcSize=0;" vertex="1" parent="1">
          <mxGeometry x="404.97" y="280" width="130" height="40" as="geometry" />
        </mxCell>
        <mxCell id="eSbj1jlRRddmUOfxKA9i-175" value="" style="edgeStyle=orthogonalEdgeStyle;rounded=0;orthogonalLoop=1;jettySize=auto;html=1;" edge="1" parent="1" source="eSbj1jlRRddmUOfxKA9i-169" target="eSbj1jlRRddmUOfxKA9i-56">
          <mxGeometry relative="1" as="geometry" />
        </mxCell>
        <mxCell id="eSbj1jlRRddmUOfxKA9i-176" value="YES" style="edgeLabel;html=1;align=center;verticalAlign=middle;resizable=0;points=[];" vertex="1" connectable="0" parent="eSbj1jlRRddmUOfxKA9i-175">
          <mxGeometry x="-0.45" y="2" relative="1" as="geometry">
            <mxPoint as="offset" />
          </mxGeometry>
        </mxCell>
        <mxCell id="eSbj1jlRRddmUOfxKA9i-178" value="" style="edgeStyle=orthogonalEdgeStyle;rounded=0;orthogonalLoop=1;jettySize=auto;html=1;" edge="1" parent="1" source="eSbj1jlRRddmUOfxKA9i-169" target="eSbj1jlRRddmUOfxKA9i-177">
          <mxGeometry relative="1" as="geometry" />
        </mxCell>
        <mxCell id="eSbj1jlRRddmUOfxKA9i-179" value="NO" style="edgeLabel;html=1;align=center;verticalAlign=middle;resizable=0;points=[];" vertex="1" connectable="0" parent="eSbj1jlRRddmUOfxKA9i-178">
          <mxGeometry x="-0.32" y="-1" relative="1" as="geometry">
            <mxPoint as="offset" />
          </mxGeometry>
        </mxCell>
        <mxCell id="eSbj1jlRRddmUOfxKA9i-169" value="Check&lt;br&gt;Avaliability" style="rhombus;whiteSpace=wrap;html=1;" vertex="1" parent="1">
          <mxGeometry x="429.98" y="350" width="80" height="80" as="geometry" />
        </mxCell>
        <mxCell id="eSbj1jlRRddmUOfxKA9i-180" value="" style="edgeStyle=orthogonalEdgeStyle;rounded=0;orthogonalLoop=1;jettySize=auto;html=1;" edge="1" parent="1" source="eSbj1jlRRddmUOfxKA9i-177" target="eSbj1jlRRddmUOfxKA9i-74">
          <mxGeometry relative="1" as="geometry" />
        </mxCell>
        <mxCell id="eSbj1jlRRddmUOfxKA9i-177" value="ContactCustomer" style="whiteSpace=wrap;html=1;rounded=1;arcSize=0;" vertex="1" parent="1">
          <mxGeometry x="409.97" y="480" width="120" height="40" as="geometry" />
        </mxCell>
        <mxCell id="eSbj1jlRRddmUOfxKA9i-181" value="" style="endArrow=classic;html=1;rounded=0;exitX=0.5;exitY=1;exitDx=0;exitDy=0;entryX=0;entryY=0.5;entryDx=0;entryDy=0;" edge="1" parent="1" source="eSbj1jlRRddmUOfxKA9i-56" target="eSbj1jlRRddmUOfxKA9i-74">
          <mxGeometry width="50" height="50" relative="1" as="geometry">
            <mxPoint x="850" y="800" as="sourcePoint" />
            <mxPoint x="900" y="750" as="targetPoint" />
            <Array as="points">
              <mxPoint x="320" y="580" />
            </Array>
          </mxGeometry>
        </mxCell>
        <mxCell id="eSbj1jlRRddmUOfxKA9i-182" value="Display List of&amp;nbsp;&lt;br&gt;Ready Orders" style="whiteSpace=wrap;html=1;rounded=1;arcSize=0;" vertex="1" parent="1">
          <mxGeometry x="719.97" y="200" width="120" height="40" as="geometry" />
        </mxCell>
        <mxCell id="eSbj1jlRRddmUOfxKA9i-183" value="Display List of&amp;nbsp;&lt;br&gt;Completed Orders" style="whiteSpace=wrap;html=1;rounded=1;arcSize=0;" vertex="1" parent="1">
          <mxGeometry x="999.98" y="200" width="120" height="40" as="geometry" />
        </mxCell>
        <mxCell id="eSbj1jlRRddmUOfxKA9i-186" value="" style="edgeStyle=orthogonalEdgeStyle;rounded=0;orthogonalLoop=1;jettySize=auto;html=1;" edge="1" parent="1" source="eSbj1jlRRddmUOfxKA9i-184" target="eSbj1jlRRddmUOfxKA9i-185">
          <mxGeometry relative="1" as="geometry" />
        </mxCell>
        <mxCell id="eSbj1jlRRddmUOfxKA9i-187" value="YES" style="edgeLabel;html=1;align=center;verticalAlign=middle;resizable=0;points=[];" vertex="1" connectable="0" parent="eSbj1jlRRddmUOfxKA9i-186">
          <mxGeometry x="-0.25" y="-1" relative="1" as="geometry">
            <mxPoint as="offset" />
          </mxGeometry>
        </mxCell>
        <mxCell id="eSbj1jlRRddmUOfxKA9i-184" value="Select &lt;br&gt;One&lt;br&gt;Order" style="rhombus;whiteSpace=wrap;html=1;" vertex="1" parent="1">
          <mxGeometry x="739.97" y="280" width="80" height="80" as="geometry" />
        </mxCell>
        <mxCell id="eSbj1jlRRddmUOfxKA9i-185" value="Display Order&lt;br&gt;Details" style="whiteSpace=wrap;html=1;rounded=1;arcSize=0;" vertex="1" parent="1">
          <mxGeometry x="719.97" y="400" width="120" height="40" as="geometry" />
        </mxCell>
        <mxCell id="eSbj1jlRRddmUOfxKA9i-189" value="Update Order Status&lt;br&gt;to Confirmed" style="whiteSpace=wrap;html=1;rounded=1;arcSize=0;" vertex="1" parent="1">
          <mxGeometry x="260" y="510" width="120" height="40" as="geometry" />
        </mxCell>
        <mxCell id="eSbj1jlRRddmUOfxKA9i-200" value="Update Order Status&lt;br&gt;to Completed" style="whiteSpace=wrap;html=1;rounded=1;arcSize=0;" vertex="1" parent="1">
          <mxGeometry x="550" y="720" width="120" height="40" as="geometry" />
        </mxCell>
        <mxCell id="eSbj1jlRRddmUOfxKA9i-206" style="edgeStyle=orthogonalEdgeStyle;rounded=0;orthogonalLoop=1;jettySize=auto;html=1;" edge="1" parent="1" source="eSbj1jlRRddmUOfxKA9i-201" target="eSbj1jlRRddmUOfxKA9i-200">
          <mxGeometry relative="1" as="geometry" />
        </mxCell>
        <mxCell id="eSbj1jlRRddmUOfxKA9i-207" value="YES" style="edgeLabel;html=1;align=center;verticalAlign=middle;resizable=0;points=[];" vertex="1" connectable="0" parent="eSbj1jlRRddmUOfxKA9i-206">
          <mxGeometry x="-0.212" y="-1" relative="1" as="geometry">
            <mxPoint as="offset" />
          </mxGeometry>
        </mxCell>
        <mxCell id="eSbj1jlRRddmUOfxKA9i-209" value="" style="edgeStyle=orthogonalEdgeStyle;rounded=0;orthogonalLoop=1;jettySize=auto;html=1;" edge="1" parent="1" source="eSbj1jlRRddmUOfxKA9i-201">
          <mxGeometry relative="1" as="geometry">
            <mxPoint x="779.9700000000003" y="720" as="targetPoint" />
          </mxGeometry>
        </mxCell>
        <mxCell id="eSbj1jlRRddmUOfxKA9i-210" value="NO" style="edgeLabel;html=1;align=center;verticalAlign=middle;resizable=0;points=[];" vertex="1" connectable="0" parent="eSbj1jlRRddmUOfxKA9i-209">
          <mxGeometry x="-0.45" y="-1" relative="1" as="geometry">
            <mxPoint as="offset" />
          </mxGeometry>
        </mxCell>
        <mxCell id="eSbj1jlRRddmUOfxKA9i-201" value="Being&amp;nbsp;&lt;br&gt;Picked Up" style="rhombus;whiteSpace=wrap;html=1;rounded=1;arcSize=0;" vertex="1" parent="1">
          <mxGeometry x="739.97" y="600" width="80" height="80" as="geometry" />
        </mxCell>
        <mxCell id="eSbj1jlRRddmUOfxKA9i-211" value="ContactCustomer" style="whiteSpace=wrap;html=1;rounded=1;arcSize=0;" vertex="1" parent="1">
          <mxGeometry x="719.97" y="720" width="120" height="40" as="geometry" />
        </mxCell>
        <mxCell id="eSbj1jlRRddmUOfxKA9i-212" value="" style="endArrow=classic;html=1;rounded=0;entryX=0;entryY=0.5;entryDx=0;entryDy=0;exitX=0.5;exitY=1;exitDx=0;exitDy=0;" edge="1" parent="1" source="eSbj1jlRRddmUOfxKA9i-200">
          <mxGeometry width="50" height="50" relative="1" as="geometry">
            <mxPoint x="630" y="760" as="sourcePoint" />
            <mxPoint x="720.02" y="820" as="targetPoint" />
            <Array as="points">
              <mxPoint x="610" y="790" />
              <mxPoint x="610" y="820" />
            </Array>
          </mxGeometry>
        </mxCell>
        <mxCell id="eSbj1jlRRddmUOfxKA9i-213" value="Display Order&lt;br&gt;Details" style="whiteSpace=wrap;html=1;rounded=1;arcSize=0;" vertex="1" parent="1">
          <mxGeometry x="999.98" y="360" width="120" height="40" as="geometry" />
        </mxCell>
        <mxCell id="eSbj1jlRRddmUOfxKA9i-214" value="" style="endArrow=classic;html=1;rounded=0;exitX=0;exitY=0.5;exitDx=0;exitDy=0;" edge="1" parent="1" source="eSbj1jlRRddmUOfxKA9i-213" target="eSbj1jlRRddmUOfxKA9i-107">
          <mxGeometry width="50" height="50" relative="1" as="geometry">
            <mxPoint x="800" y="510" as="sourcePoint" />
            <mxPoint x="990" y="130" as="targetPoint" />
            <Array as="points">
              <mxPoint x="940" y="380" />
              <mxPoint x="940" y="140" />
            </Array>
          </mxGeometry>
        </mxCell>
        <mxCell id="eSbj1jlRRddmUOfxKA9i-227" value="" style="edgeStyle=orthogonalEdgeStyle;rounded=0;orthogonalLoop=1;jettySize=auto;html=1;" edge="1" parent="1" source="eSbj1jlRRddmUOfxKA9i-215" target="eSbj1jlRRddmUOfxKA9i-225">
          <mxGeometry relative="1" as="geometry" />
        </mxCell>
        <mxCell id="eSbj1jlRRddmUOfxKA9i-230" style="edgeStyle=orthogonalEdgeStyle;rounded=0;orthogonalLoop=1;jettySize=auto;html=1;entryX=0.5;entryY=0;entryDx=0;entryDy=0;" edge="1" parent="1" source="eSbj1jlRRddmUOfxKA9i-215" target="eSbj1jlRRddmUOfxKA9i-229">
          <mxGeometry relative="1" as="geometry" />
        </mxCell>
        <mxCell id="eSbj1jlRRddmUOfxKA9i-215" value="Display ALL&lt;br&gt;Orders InProcess" style="whiteSpace=wrap;html=1;rounded=1;arcSize=0;" vertex="1" parent="1">
          <mxGeometry x="1279.97" y="200" width="120" height="40" as="geometry" />
        </mxCell>
        <mxCell id="eSbj1jlRRddmUOfxKA9i-223" value="" style="edgeStyle=orthogonalEdgeStyle;rounded=0;orthogonalLoop=1;jettySize=auto;html=1;" edge="1" parent="1" source="eSbj1jlRRddmUOfxKA9i-225" target="eSbj1jlRRddmUOfxKA9i-226">
          <mxGeometry relative="1" as="geometry" />
        </mxCell>
        <mxCell id="eSbj1jlRRddmUOfxKA9i-224" value="YES" style="edgeLabel;html=1;align=center;verticalAlign=middle;resizable=0;points=[];" vertex="1" connectable="0" parent="eSbj1jlRRddmUOfxKA9i-223">
          <mxGeometry x="-0.25" y="-1" relative="1" as="geometry">
            <mxPoint as="offset" />
          </mxGeometry>
        </mxCell>
        <mxCell id="eSbj1jlRRddmUOfxKA9i-225" value="Select &lt;br&gt;One&lt;br&gt;Order" style="rhombus;whiteSpace=wrap;html=1;" vertex="1" parent="1">
          <mxGeometry x="1299.97" y="280" width="80" height="80" as="geometry" />
        </mxCell>
        <mxCell id="eSbj1jlRRddmUOfxKA9i-226" value="Display Products and recipes" style="whiteSpace=wrap;html=1;rounded=1;arcSize=0;" vertex="1" parent="1">
          <mxGeometry x="1279.97" y="400" width="120" height="40" as="geometry" />
        </mxCell>
        <mxCell id="eSbj1jlRRddmUOfxKA9i-228" value="" style="endArrow=classic;html=1;rounded=0;exitX=0;exitY=0.5;exitDx=0;exitDy=0;entryX=0;entryY=0.5;entryDx=0;entryDy=0;" edge="1" parent="1" source="eSbj1jlRRddmUOfxKA9i-226" target="eSbj1jlRRddmUOfxKA9i-215">
          <mxGeometry width="50" height="50" relative="1" as="geometry">
            <mxPoint x="1270" y="410" as="sourcePoint" />
            <mxPoint x="1210" y="220" as="targetPoint" />
            <Array as="points">
              <mxPoint x="1210" y="420" />
              <mxPoint x="1210" y="220" />
            </Array>
          </mxGeometry>
        </mxCell>
        <mxCell id="eSbj1jlRRddmUOfxKA9i-232" value="" style="edgeStyle=orthogonalEdgeStyle;rounded=0;orthogonalLoop=1;jettySize=auto;html=1;" edge="1" parent="1" source="eSbj1jlRRddmUOfxKA9i-229" target="eSbj1jlRRddmUOfxKA9i-231">
          <mxGeometry relative="1" as="geometry" />
        </mxCell>
        <mxCell id="eSbj1jlRRddmUOfxKA9i-233" value="YES" style="edgeLabel;html=1;align=center;verticalAlign=middle;resizable=0;points=[];" vertex="1" connectable="0" parent="eSbj1jlRRddmUOfxKA9i-232">
          <mxGeometry x="-0.4" y="2" relative="1" as="geometry">
            <mxPoint as="offset" />
          </mxGeometry>
        </mxCell>
        <mxCell id="eSbj1jlRRddmUOfxKA9i-229" value="Select &lt;br&gt;Today&#39;s&lt;br&gt;Production" style="rhombus;whiteSpace=wrap;html=1;" vertex="1" parent="1">
          <mxGeometry x="1470" y="280" width="80" height="80" as="geometry" />
        </mxCell>
        <mxCell id="eSbj1jlRRddmUOfxKA9i-238" value="" style="edgeStyle=orthogonalEdgeStyle;rounded=0;orthogonalLoop=1;jettySize=auto;html=1;" edge="1" parent="1" source="eSbj1jlRRddmUOfxKA9i-231" target="eSbj1jlRRddmUOfxKA9i-237">
          <mxGeometry relative="1" as="geometry" />
        </mxCell>
        <mxCell id="eSbj1jlRRddmUOfxKA9i-231" value="Display All Products and Recipes with Merged Quantity" style="whiteSpace=wrap;html=1;rounded=1;arcSize=0;" vertex="1" parent="1">
          <mxGeometry x="1450" y="400" width="120" height="40" as="geometry" />
        </mxCell>
        <mxCell id="eSbj1jlRRddmUOfxKA9i-240" value="" style="edgeStyle=orthogonalEdgeStyle;rounded=0;orthogonalLoop=1;jettySize=auto;html=1;" edge="1" parent="1" source="eSbj1jlRRddmUOfxKA9i-237" target="eSbj1jlRRddmUOfxKA9i-239">
          <mxGeometry relative="1" as="geometry" />
        </mxCell>
        <mxCell id="eSbj1jlRRddmUOfxKA9i-237" value="Production.&lt;br&gt;&amp;nbsp;Deduct comsumed ingredients, Update Stock" style="shape=parallelogram;perimeter=parallelogramPerimeter;whiteSpace=wrap;html=1;fixedSize=1;rounded=1;arcSize=0;" vertex="1" parent="1">
          <mxGeometry x="1426.25" y="480" width="167.5" height="50" as="geometry" />
        </mxCell>
        <mxCell id="eSbj1jlRRddmUOfxKA9i-242" value="YES" style="edgeStyle=orthogonalEdgeStyle;rounded=0;orthogonalLoop=1;jettySize=auto;html=1;" edge="1" parent="1" source="eSbj1jlRRddmUOfxKA9i-239" target="eSbj1jlRRddmUOfxKA9i-241">
          <mxGeometry relative="1" as="geometry" />
        </mxCell>
        <mxCell id="eSbj1jlRRddmUOfxKA9i-239" value="All products&amp;nbsp;&lt;br&gt;in One Order&lt;br&gt;are Produced" style="rhombus;whiteSpace=wrap;html=1;" vertex="1" parent="1">
          <mxGeometry x="1470" y="570" width="80" height="80" as="geometry" />
        </mxCell>
        <mxCell id="eSbj1jlRRddmUOfxKA9i-241" value="Update Order Status&lt;br&gt;to ReadyForPickUp" style="whiteSpace=wrap;html=1;rounded=1;arcSize=0;" vertex="1" parent="1">
          <mxGeometry x="1450" y="690" width="120" height="40" as="geometry" />
        </mxCell>
        <mxCell id="eSbj1jlRRddmUOfxKA9i-243" value="?ProductStatus?" style="text;html=1;align=center;verticalAlign=middle;resizable=0;points=[];autosize=1;strokeColor=none;fillColor=none;" vertex="1" parent="1">
          <mxGeometry x="1565" y="598" width="110" height="30" as="geometry" />
        </mxCell>
        <mxCell id="eSbj1jlRRddmUOfxKA9i-244" value="DueTime&lt;span style=&quot;&quot;&gt;&amp;nbsp;&amp;lt; 24h, 48 h or 148h&lt;/span&gt;" style="text;html=1;align=center;verticalAlign=middle;resizable=0;points=[];autosize=1;strokeColor=none;fillColor=none;" vertex="1" parent="1">
          <mxGeometry x="1593.75" y="300" width="180" height="30" as="geometry" />
        </mxCell>
      </root>
    </mxGraphModel>
  </diagram>
</mxfile>
